<svg xmlns="http://www.w3.org/2000/svg" width="950.002" height="950.002" viewBox="0 0 950.002 950.002"><path d="M915.782 175.466c-13.686-3.574-25.641 4.881-30.016 17.544a274.74 274.74 0 0 1-3.05 8.441 331.832 331.832 0 0 1-1.315 3.401c-2.048 4.887-4.182 9.737-6.453 14.523a408.69 408.69 0 0 1-38.639 65.023 395.716 395.716 0 0 1-3.755 5.103c-.109.146-.257.34-.422.556a378.301 378.301 0 0 1-5.352 6.754c-4.03 4.949-8.149 9.828-12.421 14.571-8.843 9.818-18.147 19.242-28.083 27.96-2.745 2.408-5.516 4.791-8.349 7.095-1.122.914-5.98 4.655-5.812 4.576-4.098 3.013-8.264 5.934-12.546 8.676-8.932 5.72-18.228 10.926-27.925 15.241 7.816-5.601 15.423-11.935 22.617-19.13 58.349-58.348 61.183-143.418 61.318-152.931l.413-29.999c.228-16.568-13.02-29.814-29.586-29.587l-30 .413c-8.554.122-78.188 2.435-134.562 45.311a478.97 478.97 0 0 0 2.064-20.564c3.793-47.972.523-96.182-5.224-143.863C617.084 11.291 608.699 0 594.106 0c-12.189 0-26.186 11.254-24.579 24.58 5.585 46.335 9.012 93.326 5.522 139.965-.485 6.48-1.062 12.957-1.837 19.409l-.13 1.097c-.018.118-.033.231-.051.364a363.228 363.228 0 0 1-1.755 11.447c-1.937 11.242-4.313 22.425-7.475 33.392-1.721 5.972-3.581 11.909-5.729 17.741-.074.201-.216.564-.394 1.015-17.52-37.73-40.952-62.731-45.013-66.913l-20.923-21.505c-11.557-11.877-30.291-11.877-41.847 0l-20.924 21.505c-6.018 6.193-54.329 58.037-63.239 129.227l-16.557-17.021c-9.143-9.4-25.904-7.383-37.435 4.509-11.531 11.89-20.881 21.528-20.881 21.528-6.019 6.193-54.274 58.092-63.186 129.282l-16.503-16.97c-9.111-9.369-25.822-7.293-37.312 4.651-11.488 11.944-20.826 21.602-20.826 21.602-6.63 6.824-64.358 69.422-64.358 151.93 0 82.527 59.016 145.543 65.645 152.365l4.45 4.529L28.613 897.891c-14.398 14.398-17.24 34.902-6.518 45.625 10.722 10.721 31.225 7.881 45.624-6.518l130.2-130.201c7.957 7.686 69.483 64.592 151.312 64.631 82.518-.01 144.73-58.104 151.555-64.732l21.506-20.924c11.877-11.555 13.885-28.334 4.484-37.479l-17.021-16.555c71.209-8.912 123.035-57.223 129.227-63.238l21.507-20.926c11.877-11.555 13.885-28.334 4.483-37.477-9.4-9.145-17.021-16.555-17.021-16.555 71.209-8.912 123.035-57.223 129.228-63.24l21.505-20.924c11.877-11.557 11.877-30.291 0-41.846l-21.505-20.924c-2.65-2.574-13.67-12.932-30.988-24.635 41.771-16.561 78.172-47.04 107.149-80.619 34.5-39.977 62.699-85.848 79.985-135.874 4.376-12.658-5.333-26.825-17.543-30.014zM644.73 246.288c43.265-43.264 112.464-44.225 112.464-44.225s-.96 69.2-44.225 112.464c-43.264 43.263-112.464 44.224-112.464 44.224s.961-69.199 44.225-112.463zm-173.918-23.481s48.254 49.612 48.254 110.805c0 61.191-48.254 110.804-48.254 110.804s-48.253-49.612-48.253-110.804c0-61.193 48.253-110.805 48.253-110.805zM332.625 360.994s48.263 49.602 48.263 110.794-48.253 110.803-48.253 110.803-48.262-49.604-48.262-110.794c0-61.191 48.252-110.803 48.252-110.803zM194.438 720.789s-48.252-49.611-48.253-110.805c0-61.191 48.253-110.803 48.253-110.803s48.253 49.611 48.253 110.803c0 61.194-48.253 110.805-48.253 110.805zm154.789 92.238c-56.736.008-103.699-41.672-110.015-47.521l10.056-10.059c17.658-14.18 55.847-38.949 99.935-38.949 61.191 0 110.846 48.295 110.846 48.295s-49.631 48.232-110.822 48.234zm138.182-138.193c-56.736.01-103.694-41.666-110.011-47.518l10.058-10.057c17.657-14.182 55.865-38.932 99.953-38.951 61.183.01 110.854 48.324 110.854 48.324s-49.662 48.202-110.854 48.202zm138.196-138.195c-56.735.01-103.693-41.668-110.01-47.52l1.266-1.264-.638-.637c9.996-9.123 54.604-46.831 109.214-46.831 61.193 0 110.991 48.016 110.991 48.016s-49.631 48.236-110.823 48.236z"/></svg>